<mxfile host="app.diagrams.net" agent="Mozilla/5.0 (X11; Linux x86_64) AppleWebKit/537.36 (KHTML, like Gecko) Chrome/129.0.0.0 Safari/537.36" version="24.7.16">
  <diagram name="Page-1" id="dgj6MPmYFcQIdzGxah4V">
    <mxGraphModel dx="840" dy="1020" grid="1" gridSize="10" guides="1" tooltips="1" connect="1" arrows="1" fold="1" page="1" pageScale="1" pageWidth="1200" pageHeight="1920" background="none" math="0" shadow="0">
      <root>
        <mxCell id="0" />
        <mxCell id="1" parent="0" />
        <mxCell id="w1reWnGRpWOokGqymjvX-3" value="&lt;b&gt;start&lt;/b&gt;" style="strokeWidth=2;html=1;shape=mxgraph.flowchart.terminator;whiteSpace=wrap;labelBackgroundColor=none;" vertex="1" parent="1">
          <mxGeometry x="375" y="50" width="100" height="60" as="geometry" />
        </mxCell>
        <mxCell id="w1reWnGRpWOokGqymjvX-5" value="" style="endArrow=classic;html=1;rounded=0;fontSize=12;fontColor=default;startSize=8;endSize=8;curved=1;labelBackgroundColor=none;fontStyle=0" edge="1" parent="1">
          <mxGeometry width="50" height="50" relative="1" as="geometry">
            <mxPoint x="424" y="110" as="sourcePoint" />
            <mxPoint x="424" y="160" as="targetPoint" />
          </mxGeometry>
        </mxCell>
        <mxCell id="w1reWnGRpWOokGqymjvX-35" value="" style="edgeStyle=none;curved=1;rounded=0;orthogonalLoop=1;jettySize=auto;html=1;fontSize=12;fontColor=#393C56;startSize=8;endSize=8;" edge="1" parent="1" source="w1reWnGRpWOokGqymjvX-7" target="w1reWnGRpWOokGqymjvX-10">
          <mxGeometry relative="1" as="geometry" />
        </mxCell>
        <mxCell id="w1reWnGRpWOokGqymjvX-7" value="&lt;b&gt;input:&amp;nbsp;&lt;/b&gt;&lt;div&gt;password&lt;div&gt;yang akan dibuat encryption&lt;/div&gt;&lt;/div&gt;" style="shape=parallelogram;html=1;strokeWidth=2;perimeter=parallelogramPerimeter;whiteSpace=wrap;rounded=1;arcSize=12;size=0.23;strokeColor=#d6b656;fillColor=#fff2cc;labelBackgroundColor=none;" vertex="1" parent="1">
          <mxGeometry x="295" y="160" width="260" height="60" as="geometry" />
        </mxCell>
        <mxCell id="w1reWnGRpWOokGqymjvX-8" value="&lt;b&gt;input == yes&lt;/b&gt;" style="strokeWidth=2;html=1;shape=mxgraph.flowchart.decision;whiteSpace=wrap;strokeColor=#6c8ebf;fillColor=#dae8fc;labelBackgroundColor=none;" vertex="1" parent="1">
          <mxGeometry x="377" y="381" width="95" height="80" as="geometry" />
        </mxCell>
        <mxCell id="w1reWnGRpWOokGqymjvX-34" value="" style="edgeStyle=none;curved=1;rounded=0;orthogonalLoop=1;jettySize=auto;html=1;strokeColor=#E07A5F;fontSize=12;fontColor=#393C56;startSize=8;endSize=8;fillColor=#F2CC8F;" edge="1" parent="1" source="w1reWnGRpWOokGqymjvX-10" target="w1reWnGRpWOokGqymjvX-8">
          <mxGeometry relative="1" as="geometry" />
        </mxCell>
        <mxCell id="w1reWnGRpWOokGqymjvX-10" value="&lt;b&gt;input:&lt;/b&gt;&lt;div&gt;show password decrypt&lt;div&gt;[yes/No]&lt;/div&gt;&lt;/div&gt;" style="shape=parallelogram;html=1;strokeWidth=2;perimeter=parallelogramPerimeter;whiteSpace=wrap;rounded=1;arcSize=12;size=0.23;strokeColor=#d6b656;fillColor=#fff2cc;labelBackgroundColor=none;" vertex="1" parent="1">
          <mxGeometry x="295" y="271" width="260" height="60" as="geometry" />
        </mxCell>
        <mxCell id="w1reWnGRpWOokGqymjvX-32" value="show dectypt text" style="rounded=1;whiteSpace=wrap;html=1;absoluteArcSize=1;arcSize=14;strokeWidth=2;strokeColor=#82b366;fillColor=#d5e8d4;" vertex="1" parent="1">
          <mxGeometry x="600" y="383" width="120" height="78" as="geometry" />
        </mxCell>
        <mxCell id="w1reWnGRpWOokGqymjvX-36" value="" style="edgeStyle=none;curved=1;rounded=0;orthogonalLoop=1;jettySize=auto;html=1;strokeColor=#E07A5F;fontSize=12;fontColor=#393C56;startSize=8;endSize=8;fillColor=#F2CC8F;" edge="1" parent="1" source="w1reWnGRpWOokGqymjvX-28" target="w1reWnGRpWOokGqymjvX-37">
          <mxGeometry relative="1" as="geometry">
            <mxPoint x="425" y="460" as="sourcePoint" />
            <mxPoint x="425" y="510" as="targetPoint" />
          </mxGeometry>
        </mxCell>
        <mxCell id="w1reWnGRpWOokGqymjvX-37" value="&lt;b&gt;input == no&lt;/b&gt;" style="strokeWidth=2;html=1;shape=mxgraph.flowchart.decision;whiteSpace=wrap;strokeColor=#6c8ebf;fillColor=#dae8fc;labelBackgroundColor=none;" vertex="1" parent="1">
          <mxGeometry x="378" y="544" width="95" height="80" as="geometry" />
        </mxCell>
        <mxCell id="w1reWnGRpWOokGqymjvX-38" value="" style="endArrow=classic;html=1;rounded=0;strokeColor=#82b366;fontSize=12;fontColor=#393C56;startSize=8;endSize=8;curved=1;fillColor=#d5e8d4;" edge="1" parent="1">
          <mxGeometry width="50" height="50" relative="1" as="geometry">
            <mxPoint x="554" y="421" as="sourcePoint" />
            <mxPoint x="600" y="420" as="targetPoint" />
          </mxGeometry>
        </mxCell>
        <mxCell id="w1reWnGRpWOokGqymjvX-39" value="" style="endArrow=classic;html=1;rounded=0;strokeColor=#82b366;fontSize=12;fontColor=#393C56;startSize=8;endSize=8;curved=1;fillColor=#d5e8d4;" edge="1" parent="1" target="w1reWnGRpWOokGqymjvX-26">
          <mxGeometry width="50" height="50" relative="1" as="geometry">
            <mxPoint x="472" y="420" as="sourcePoint" />
            <mxPoint x="590" y="420" as="targetPoint" />
          </mxGeometry>
        </mxCell>
        <mxCell id="w1reWnGRpWOokGqymjvX-26" value="&lt;b&gt;True&lt;/b&gt;" style="text;strokeColor=none;fillColor=none;html=1;align=center;verticalAlign=middle;whiteSpace=wrap;rounded=0;fontSize=16;fontColor=#393C56;labelBackgroundColor=none;" vertex="1" parent="1">
          <mxGeometry x="495" y="406" width="60" height="30" as="geometry" />
        </mxCell>
        <mxCell id="w1reWnGRpWOokGqymjvX-40" value="" style="edgeStyle=none;curved=1;rounded=0;orthogonalLoop=1;jettySize=auto;html=1;strokeColor=#E07A5F;fontSize=12;fontColor=#393C56;startSize=8;endSize=8;fillColor=#F2CC8F;" edge="1" parent="1" target="w1reWnGRpWOokGqymjvX-28">
          <mxGeometry relative="1" as="geometry">
            <mxPoint x="425" y="460" as="sourcePoint" />
            <mxPoint x="425" y="510" as="targetPoint" />
          </mxGeometry>
        </mxCell>
        <mxCell id="w1reWnGRpWOokGqymjvX-28" value="&lt;b&gt;False&lt;/b&gt;" style="text;strokeColor=none;fillColor=none;html=1;align=center;verticalAlign=middle;whiteSpace=wrap;rounded=0;fontSize=16;fontColor=#393C56;" vertex="1" parent="1">
          <mxGeometry x="395" y="487" width="60" height="30" as="geometry" />
        </mxCell>
        <mxCell id="w1reWnGRpWOokGqymjvX-45" value="not show decrypt text" style="rounded=1;whiteSpace=wrap;html=1;absoluteArcSize=1;arcSize=14;strokeWidth=2;strokeColor=#82b366;fillColor=#d5e8d4;" vertex="1" parent="1">
          <mxGeometry x="600" y="546.5" width="120" height="75" as="geometry" />
        </mxCell>
        <mxCell id="w1reWnGRpWOokGqymjvX-46" value="" style="edgeStyle=none;curved=1;rounded=0;orthogonalLoop=1;jettySize=auto;html=1;strokeColor=#82b366;fontSize=12;fontColor=#393C56;startSize=8;endSize=8;fillColor=#d5e8d4;exitX=1;exitY=0.5;exitDx=0;exitDy=0;exitPerimeter=0;entryX=0;entryY=0.5;entryDx=0;entryDy=0;" edge="1" parent="1" source="w1reWnGRpWOokGqymjvX-47" target="w1reWnGRpWOokGqymjvX-45">
          <mxGeometry relative="1" as="geometry">
            <mxPoint x="510" y="565" as="sourcePoint" />
            <mxPoint x="510" y="615" as="targetPoint" />
          </mxGeometry>
        </mxCell>
        <mxCell id="w1reWnGRpWOokGqymjvX-48" value="" style="edgeStyle=none;curved=1;rounded=0;orthogonalLoop=1;jettySize=auto;html=1;strokeColor=#82b366;fontSize=12;fontColor=#393C56;startSize=8;endSize=8;fillColor=#d5e8d4;exitX=1;exitY=0.5;exitDx=0;exitDy=0;exitPerimeter=0;entryX=0;entryY=0.5;entryDx=0;entryDy=0;" edge="1" parent="1" source="w1reWnGRpWOokGqymjvX-37" target="w1reWnGRpWOokGqymjvX-47">
          <mxGeometry relative="1" as="geometry">
            <mxPoint x="473" y="584" as="sourcePoint" />
            <mxPoint x="600" y="584" as="targetPoint" />
          </mxGeometry>
        </mxCell>
        <mxCell id="w1reWnGRpWOokGqymjvX-47" value="&lt;b&gt;True&lt;/b&gt;" style="text;strokeColor=none;fillColor=none;html=1;align=center;verticalAlign=middle;whiteSpace=wrap;rounded=0;fontSize=16;fontColor=#393C56;labelBackgroundColor=none;" vertex="1" parent="1">
          <mxGeometry x="495" y="569" width="60" height="30" as="geometry" />
        </mxCell>
        <mxCell id="w1reWnGRpWOokGqymjvX-49" value="&lt;b&gt;input == kosong&lt;/b&gt;" style="strokeWidth=2;html=1;shape=mxgraph.flowchart.decision;whiteSpace=wrap;strokeColor=#6c8ebf;fillColor=#dae8fc;labelBackgroundColor=none;" vertex="1" parent="1">
          <mxGeometry x="369" y="718" width="113" height="92" as="geometry" />
        </mxCell>
        <mxCell id="w1reWnGRpWOokGqymjvX-50" value="" style="edgeStyle=none;curved=1;rounded=0;orthogonalLoop=1;jettySize=auto;html=1;strokeColor=#E07A5F;fontSize=12;fontColor=#393C56;startSize=8;endSize=8;fillColor=#F2CC8F;entryX=0.5;entryY=0;entryDx=0;entryDy=0;entryPerimeter=0;" edge="1" parent="1" source="w1reWnGRpWOokGqymjvX-51" target="w1reWnGRpWOokGqymjvX-49">
          <mxGeometry relative="1" as="geometry">
            <mxPoint x="425" y="624" as="sourcePoint" />
            <mxPoint x="425" y="674" as="targetPoint" />
          </mxGeometry>
        </mxCell>
        <mxCell id="w1reWnGRpWOokGqymjvX-52" value="" style="edgeStyle=none;curved=1;rounded=0;orthogonalLoop=1;jettySize=auto;html=1;strokeColor=#E07A5F;fontSize=12;fontColor=#393C56;startSize=8;endSize=8;fillColor=#F2CC8F;entryX=0.5;entryY=0;entryDx=0;entryDy=0;entryPerimeter=0;" edge="1" parent="1" target="w1reWnGRpWOokGqymjvX-51">
          <mxGeometry relative="1" as="geometry">
            <mxPoint x="425" y="624" as="sourcePoint" />
            <mxPoint x="425" y="718" as="targetPoint" />
          </mxGeometry>
        </mxCell>
        <mxCell id="w1reWnGRpWOokGqymjvX-51" value="&lt;b&gt;False&lt;/b&gt;" style="text;strokeColor=none;fillColor=none;html=1;align=center;verticalAlign=middle;whiteSpace=wrap;rounded=0;fontSize=16;fontColor=#393C56;" vertex="1" parent="1">
          <mxGeometry x="394.5" y="650" width="60" height="30" as="geometry" />
        </mxCell>
        <mxCell id="w1reWnGRpWOokGqymjvX-53" value="input tidak boleh kosong" style="rounded=1;whiteSpace=wrap;html=1;absoluteArcSize=1;arcSize=14;strokeWidth=2;strokeColor=#b85450;fillColor=#f8cecc;" vertex="1" parent="1">
          <mxGeometry x="600" y="726.5" width="120" height="75" as="geometry" />
        </mxCell>
        <mxCell id="w1reWnGRpWOokGqymjvX-54" value="" style="endArrow=classic;html=1;rounded=0;strokeColor=#b85450;fontSize=12;fontColor=#393C56;startSize=8;endSize=8;curved=1;fillColor=#f8cecc;entryX=0;entryY=0.5;entryDx=0;entryDy=0;" edge="1" parent="1" source="w1reWnGRpWOokGqymjvX-57" target="w1reWnGRpWOokGqymjvX-53">
          <mxGeometry width="50" height="50" relative="1" as="geometry">
            <mxPoint x="482" y="763" as="sourcePoint" />
            <mxPoint x="528" y="762" as="targetPoint" />
          </mxGeometry>
        </mxCell>
        <mxCell id="w1reWnGRpWOokGqymjvX-58" value="" style="endArrow=classic;html=1;rounded=0;strokeColor=#b85450;fontSize=12;fontColor=#393C56;startSize=8;endSize=8;curved=1;fillColor=#f8cecc;entryX=0;entryY=0.5;entryDx=0;entryDy=0;" edge="1" parent="1" target="w1reWnGRpWOokGqymjvX-57">
          <mxGeometry width="50" height="50" relative="1" as="geometry">
            <mxPoint x="482" y="763" as="sourcePoint" />
            <mxPoint x="600" y="764" as="targetPoint" />
          </mxGeometry>
        </mxCell>
        <mxCell id="w1reWnGRpWOokGqymjvX-57" value="&lt;b&gt;True&lt;/b&gt;" style="text;strokeColor=none;fillColor=none;html=1;align=center;verticalAlign=middle;whiteSpace=wrap;rounded=0;fontSize=16;fontColor=#393C56;labelBackgroundColor=none;" vertex="1" parent="1">
          <mxGeometry x="495" y="749" width="60" height="30" as="geometry" />
        </mxCell>
        <mxCell id="w1reWnGRpWOokGqymjvX-59" value="" style="edgeStyle=none;curved=1;rounded=0;orthogonalLoop=1;jettySize=auto;html=1;strokeColor=#E07A5F;fontSize=12;fontColor=#393C56;startSize=8;endSize=8;fillColor=#F2CC8F;entryX=0.5;entryY=0;entryDx=0;entryDy=0;entryPerimeter=0;" edge="1" parent="1" source="w1reWnGRpWOokGqymjvX-60">
          <mxGeometry relative="1" as="geometry">
            <mxPoint x="425" y="807" as="sourcePoint" />
            <mxPoint x="426" y="901" as="targetPoint" />
          </mxGeometry>
        </mxCell>
        <mxCell id="w1reWnGRpWOokGqymjvX-61" value="" style="edgeStyle=none;curved=1;rounded=0;orthogonalLoop=1;jettySize=auto;html=1;strokeColor=#E07A5F;fontSize=12;fontColor=#393C56;startSize=8;endSize=8;fillColor=#F2CC8F;" edge="1" parent="1" target="w1reWnGRpWOokGqymjvX-60">
          <mxGeometry relative="1" as="geometry">
            <mxPoint x="425" y="807" as="sourcePoint" />
            <mxPoint x="425" y="920" as="targetPoint" />
          </mxGeometry>
        </mxCell>
        <mxCell id="w1reWnGRpWOokGqymjvX-60" value="&lt;b&gt;False&lt;/b&gt;" style="text;strokeColor=none;fillColor=none;html=1;align=center;verticalAlign=middle;whiteSpace=wrap;rounded=0;fontSize=16;fontColor=#393C56;" vertex="1" parent="1">
          <mxGeometry x="395.5" y="840" width="60" height="30" as="geometry" />
        </mxCell>
        <mxCell id="w1reWnGRpWOokGqymjvX-64" value="" style="endArrow=classic;html=1;rounded=0;fontSize=12;fontColor=#393C56;startSize=8;endSize=8;curved=1;exitX=0.5;exitY=1;exitDx=0;exitDy=0;exitPerimeter=0;" edge="1" parent="1">
          <mxGeometry width="50" height="50" relative="1" as="geometry">
            <mxPoint x="424.91" y="960" as="sourcePoint" />
            <mxPoint x="425" y="1060" as="targetPoint" />
          </mxGeometry>
        </mxCell>
        <mxCell id="w1reWnGRpWOokGqymjvX-66" value="" style="edgeStyle=segmentEdgeStyle;endArrow=classic;html=1;curved=0;rounded=0;endSize=8;startSize=8;fontSize=12;fontColor=#393C56;exitX=1;exitY=0.5;exitDx=0;exitDy=0;" edge="1" parent="1" source="w1reWnGRpWOokGqymjvX-32">
          <mxGeometry width="50" height="50" relative="1" as="geometry">
            <mxPoint x="730" y="421" as="sourcePoint" />
            <mxPoint x="570" y="1100" as="targetPoint" />
            <Array as="points">
              <mxPoint x="763" y="421" />
              <mxPoint x="763" y="1100" />
            </Array>
          </mxGeometry>
        </mxCell>
        <mxCell id="w1reWnGRpWOokGqymjvX-67" value="" style="endArrow=classic;html=1;rounded=0;fontSize=12;fontColor=#393C56;startSize=8;endSize=8;curved=1;exitX=1;exitY=0.5;exitDx=0;exitDy=0;" edge="1" parent="1" source="w1reWnGRpWOokGqymjvX-45">
          <mxGeometry width="50" height="50" relative="1" as="geometry">
            <mxPoint x="684" y="584" as="sourcePoint" />
            <mxPoint x="760" y="583" as="targetPoint" />
          </mxGeometry>
        </mxCell>
        <mxCell id="w1reWnGRpWOokGqymjvX-68" value="" style="endArrow=classic;html=1;rounded=0;fontSize=12;fontColor=#393C56;startSize=8;endSize=8;curved=1;" edge="1" parent="1">
          <mxGeometry width="50" height="50" relative="1" as="geometry">
            <mxPoint x="720" y="765" as="sourcePoint" />
            <mxPoint x="761" y="765" as="targetPoint" />
          </mxGeometry>
        </mxCell>
        <mxCell id="w1reWnGRpWOokGqymjvX-69" value="&lt;b&gt;input :&lt;/b&gt;&lt;div&gt;show password dalam bentuk file ?&lt;/div&gt;&lt;div&gt;[yes/no]&lt;/div&gt;" style="shape=parallelogram;html=1;strokeWidth=2;perimeter=parallelogramPerimeter;whiteSpace=wrap;rounded=1;arcSize=12;size=0.23;strokeColor=#d6b656;fillColor=#fff2cc;" vertex="1" parent="1">
          <mxGeometry x="284.25" y="1064" width="288.5" height="70" as="geometry" />
        </mxCell>
        <mxCell id="w1reWnGRpWOokGqymjvX-70" value="&lt;b&gt;cek input&lt;/b&gt;&lt;br&gt;&lt;div&gt;&lt;b&gt;[yes/no]&lt;/b&gt;&lt;/div&gt;" style="strokeWidth=2;html=1;shape=mxgraph.flowchart.decision;whiteSpace=wrap;strokeColor=#6c8ebf;fillColor=#dae8fc;labelBackgroundColor=none;" vertex="1" parent="1">
          <mxGeometry x="379" y="1196" width="102" height="100" as="geometry" />
        </mxCell>
        <mxCell id="w1reWnGRpWOokGqymjvX-75" value="" style="edgeStyle=none;curved=1;rounded=0;orthogonalLoop=1;jettySize=auto;html=1;fontSize=12;fontColor=#393C56;startSize=8;endSize=8;" edge="1" parent="1">
          <mxGeometry relative="1" as="geometry">
            <mxPoint x="429.41" y="1136" as="sourcePoint" />
            <mxPoint x="429.41" y="1196" as="targetPoint" />
          </mxGeometry>
        </mxCell>
        <mxCell id="w1reWnGRpWOokGqymjvX-76" value="" style="edgeStyle=segmentEdgeStyle;endArrow=classic;html=1;curved=0;rounded=0;endSize=8;startSize=8;strokeColor=#b85450;fontSize=12;fontColor=#393C56;fillColor=#f8cecc;" edge="1" parent="1" source="w1reWnGRpWOokGqymjvX-80">
          <mxGeometry width="50" height="50" relative="1" as="geometry">
            <mxPoint x="379" y="1246" as="sourcePoint" />
            <mxPoint x="244" y="1326" as="targetPoint" />
          </mxGeometry>
        </mxCell>
        <mxCell id="w1reWnGRpWOokGqymjvX-77" value="" style="edgeStyle=segmentEdgeStyle;endArrow=classic;html=1;curved=0;rounded=0;endSize=8;startSize=8;strokeColor=#82b366;fontSize=12;fontColor=#393C56;fillColor=#d5e8d4;" edge="1" parent="1" source="w1reWnGRpWOokGqymjvX-78">
          <mxGeometry width="50" height="50" relative="1" as="geometry">
            <mxPoint x="481" y="1246" as="sourcePoint" />
            <mxPoint x="604" y="1326" as="targetPoint" />
          </mxGeometry>
        </mxCell>
        <mxCell id="w1reWnGRpWOokGqymjvX-79" value="" style="edgeStyle=segmentEdgeStyle;endArrow=classic;html=1;curved=0;rounded=0;endSize=8;startSize=8;strokeColor=#82b366;fontSize=12;fontColor=#393C56;fillColor=#d5e8d4;" edge="1" parent="1" target="w1reWnGRpWOokGqymjvX-78">
          <mxGeometry width="50" height="50" relative="1" as="geometry">
            <mxPoint x="481" y="1246" as="sourcePoint" />
            <mxPoint x="604" y="1326" as="targetPoint" />
          </mxGeometry>
        </mxCell>
        <mxCell id="w1reWnGRpWOokGqymjvX-78" value="&lt;b&gt;True&lt;/b&gt;" style="text;strokeColor=none;fillColor=none;html=1;align=center;verticalAlign=middle;whiteSpace=wrap;rounded=0;fontSize=16;fontColor=#393C56;" vertex="1" parent="1">
          <mxGeometry x="512.75" y="1231" width="60" height="30" as="geometry" />
        </mxCell>
        <mxCell id="w1reWnGRpWOokGqymjvX-81" value="" style="edgeStyle=segmentEdgeStyle;endArrow=classic;html=1;curved=0;rounded=0;endSize=8;startSize=8;strokeColor=#b85450;fontSize=12;fontColor=#393C56;fillColor=#f8cecc;" edge="1" parent="1" target="w1reWnGRpWOokGqymjvX-80">
          <mxGeometry width="50" height="50" relative="1" as="geometry">
            <mxPoint x="379" y="1246" as="sourcePoint" />
            <mxPoint x="244" y="1326" as="targetPoint" />
          </mxGeometry>
        </mxCell>
        <mxCell id="w1reWnGRpWOokGqymjvX-80" value="&lt;b&gt;False&lt;/b&gt;" style="text;strokeColor=none;fillColor=none;html=1;align=center;verticalAlign=middle;whiteSpace=wrap;rounded=0;fontSize=16;fontColor=#393C56;" vertex="1" parent="1">
          <mxGeometry x="284.25" y="1231" width="60" height="30" as="geometry" />
        </mxCell>
        <mxCell id="w1reWnGRpWOokGqymjvX-82" value="&lt;b&gt;encrypt yang&lt;/b&gt;&lt;div&gt;&lt;b&gt;ditunjukkan di layar&lt;/b&gt;&lt;/div&gt;" style="rounded=1;whiteSpace=wrap;html=1;absoluteArcSize=1;arcSize=14;strokeWidth=2;strokeColor=#b85450;fillColor=#f8cecc;" vertex="1" parent="1">
          <mxGeometry x="164" y="1334" width="165" height="80" as="geometry" />
        </mxCell>
        <mxCell id="w1reWnGRpWOokGqymjvX-84" value="&lt;b&gt;encript dalam&lt;/b&gt;&lt;div&gt;&lt;b&gt;bentuk file&lt;/b&gt;&lt;/div&gt;" style="rounded=1;whiteSpace=wrap;html=1;absoluteArcSize=1;arcSize=14;strokeWidth=2;strokeColor=#82b366;fillColor=#d5e8d4;" vertex="1" parent="1">
          <mxGeometry x="522" y="1334" width="165" height="80" as="geometry" />
        </mxCell>
        <mxCell id="w1reWnGRpWOokGqymjvX-95" value="" style="endArrow=classic;html=1;rounded=0;fontSize=12;fontColor=#393C56;startSize=8;endSize=8;curved=1;exitX=0.5;exitY=1;exitDx=0;exitDy=0;" edge="1" parent="1">
          <mxGeometry width="50" height="50" relative="1" as="geometry">
            <mxPoint x="424" y="1476" as="sourcePoint" />
            <mxPoint x="424" y="1566" as="targetPoint" />
          </mxGeometry>
        </mxCell>
        <mxCell id="w1reWnGRpWOokGqymjvX-96" value="&lt;b&gt;selesai&lt;/b&gt;" style="strokeWidth=2;html=1;shape=mxgraph.flowchart.terminator;whiteSpace=wrap;" vertex="1" parent="1">
          <mxGeometry x="376" y="1566" width="100" height="60" as="geometry" />
        </mxCell>
        <mxCell id="w1reWnGRpWOokGqymjvX-97" value="" style="edgeStyle=segmentEdgeStyle;endArrow=classic;html=1;curved=0;rounded=0;endSize=8;startSize=8;fontSize=12;fontColor=#393C56;" edge="1" parent="1">
          <mxGeometry width="50" height="50" relative="1" as="geometry">
            <mxPoint x="606" y="1416" as="sourcePoint" />
            <mxPoint x="424" y="1476" as="targetPoint" />
            <Array as="points">
              <mxPoint x="606" y="1476" />
            </Array>
          </mxGeometry>
        </mxCell>
        <mxCell id="w1reWnGRpWOokGqymjvX-98" value="" style="edgeStyle=segmentEdgeStyle;endArrow=classic;html=1;curved=0;rounded=0;endSize=8;startSize=8;fontSize=12;fontColor=#393C56;" edge="1" parent="1">
          <mxGeometry width="50" height="50" relative="1" as="geometry">
            <mxPoint x="246" y="1416" as="sourcePoint" />
            <mxPoint x="424" y="1476" as="targetPoint" />
            <Array as="points">
              <mxPoint x="246" y="1476" />
            </Array>
          </mxGeometry>
        </mxCell>
        <mxCell id="w1reWnGRpWOokGqymjvX-102" value="&lt;b&gt;input not valid&lt;/b&gt;" style="rounded=1;whiteSpace=wrap;html=1;absoluteArcSize=1;arcSize=14;strokeWidth=2;strokeColor=#b85450;fillColor=#f8cecc;" vertex="1" parent="1">
          <mxGeometry x="372" y="900" width="106" height="60" as="geometry" />
        </mxCell>
      </root>
    </mxGraphModel>
  </diagram>
</mxfile>
